HIERARCHY
ROOT Hips
{
	OFFSET -0.001795 -0.223333 0.028219
	CHANNELS 6 Xposition Yposition Zposition Zrotation Yrotation Xrotation 
	JOINT LeftUpLeg
	{
		OFFSET 0.069520 -0.091406 -0.006815
		CHANNELS 3 Zrotation Yrotation Xrotation
		JOINT LeftLeg
		{
			OFFSET 0.034277 -0.375199 -0.004496
			CHANNELS 3 Zrotation Yrotation Xrotation
			JOINT LeftFoot
			{
				OFFSET -0.013596 -0.397961 -0.043693
				CHANNELS 3 Zrotation Yrotation Xrotation
				JOINT LeftToe
				{
					OFFSET 0.026358 -0.055791 0.119288
					CHANNELS 3 Zrotation Yrotation Xrotation
					End Site
					{
						OFFSET 0.000000 0.000000 0.000000
					}
				}
			}
		}
	}
	JOINT RightUpLeg
	{
		OFFSET -0.067670 -0.090522 -0.004320
		CHANNELS 3 Zrotation Yrotation Xrotation
		JOINT RightLeg
		{
			OFFSET -0.038290 -0.382569 -0.008850
			CHANNELS 3 Zrotation Yrotation Xrotation
			JOINT RightFoot
			{
				OFFSET 0.015774 -0.398415 -0.042312
				CHANNELS 3 Zrotation Yrotation Xrotation
				JOINT RightToe
				{
					OFFSET -0.025372 -0.048144 0.123348
					CHANNELS 3 Zrotation Yrotation Xrotation
					End Site
					{
						OFFSET 0.000000 0.000000 0.000000
					}
				}
			}
		}
	}
	JOINT Spine
	{
		OFFSET -0.002533 0.108963 -0.026696
		CHANNELS 3 Zrotation Yrotation Xrotation
		JOINT Spine1
		{
			OFFSET 0.005487 0.135180 0.001092
			CHANNELS 3 Zrotation Yrotation Xrotation
			JOINT Spine2
			{
				OFFSET 0.001457 0.052922 0.025425
				CHANNELS 3 Zrotation Yrotation Xrotation
				JOINT Neck
				{
					OFFSET -0.002778 0.213870 -0.042857
					CHANNELS 3 Zrotation Yrotation Xrotation
					JOINT Head
					{
						OFFSET 0.005152 0.064970 0.051349
						CHANNELS 3 Zrotation Yrotation Xrotation
						End Site
						{
							OFFSET 0.000000 0.000000 0.000000
						}
					}
				}
				JOINT LeftShoulder
				{
					OFFSET 0.078845 0.121749 -0.034090
					CHANNELS 3 Zrotation Yrotation Xrotation
					JOINT LeftArm
					{
						OFFSET 0.090977 0.030469 -0.008868
						CHANNELS 3 Zrotation Yrotation Xrotation
						JOINT LeftForeArm
						{
							OFFSET 0.259612 -0.012772 -0.027456
							CHANNELS 3 Zrotation Yrotation Xrotation
							JOINT LeftHand
							{
								OFFSET 0.249234 0.008986 -0.001171
								CHANNELS 3 Zrotation Yrotation Xrotation
								End Site
								{
									OFFSET 0.000000 0.000000 0.000000
								}
							}
						}
					}
				}
				JOINT RightShoulder
				{
					OFFSET -0.081759 0.118833 -0.038615
					CHANNELS 3 Zrotation Yrotation Xrotation
					JOINT RightArm
					{
						OFFSET -0.096012 0.032551 -0.009143
						CHANNELS 3 Zrotation Yrotation Xrotation
						JOINT RightForeArm
						{
							OFFSET -0.253742 -0.013329 -0.021401
							CHANNELS 3 Zrotation Yrotation Xrotation
							JOINT RightHand
							{
								OFFSET -0.255298 0.007772 -0.005559
								CHANNELS 3 Zrotation Yrotation Xrotation
								End Site
								{
									OFFSET 0.000000 0.000000 0.000000
								}
							}
						}
					}
				}
			}
		}
	}
}
MOTION
Frames: 18
Frame Time: 0.050000
0.000000 0.951312 0.000000 -0.933221 -9.077162 1.309452 1.787826 0.096261 1.121184 1.404650 -0.032061 -3.169207 -4.204357 -4.382319 10.029970 0.000000 0.000000 0.000000 0.510899 0.028631 -0.526077 -1.112906 0.087599 -0.226141 1.601796 -2.217648 9.914694 0.000000 0.000000 0.000000 4.443998 -0.033967 -0.130654 -4.169657 1.937556 -1.534230 -3.277567 6.547950 5.055271 6.219481 -3.039371 -11.795956 0.000000 0.000000 0.000000 -19.956731 -8.060007 1.843254 -52.209215 -8.793788 -2.372641 -8.757301 -22.521318 2.493811 0.000000 0.000000 0.000000 17.751349 1.067583 -0.526039 62.363140 4.844443 -3.609496 13.382741 29.202780 4.467095 0.000000 0.000000 0.000000 
-0.000473 0.950537 0.000949 -1.186738 -9.810860 1.885894 2.656127 0.120246 1.483931 0.280575 0.130251 -4.531687 -3.955529 -3.964906 10.173256 0.000000 0.000000 0.000000 0.611587 0.081888 -1.129260 -0.876504 0.066622 -0.207672 1.891086 -1.644605 9.748873 0.000000 0.000000 0.000000 4.954872 0.018854 -0.838778 -4.226706 2.002093 -0.709786 -4.085398 7.322079 4.328454 6.379532 -2.852515 -13.177244 0.000000 0.000000 0.000000 -20.216366 -8.144233 1.662106 -51.874753 -9.413100 -1.970960 -9.182850 -21.718041 2.447806 0.000000 0.000000 0.000000 17.459885 0.256615 -0.806859 63.697865 4.241219 -3.903658 12.551505 29.200542 4.303070 0.000000 0.000000 0.000000 
-0.000806 0.950112 0.001580 -0.686787 -9.720300 1.989943 2.429023 0.092176 1.122793 -0.241051 0.164221 -4.206751 -4.014996 -4.061267 10.178976 0.000000 0.000000 0.000000 0.383059 0.129556 -1.538054 -1.389137 0.136386 0.265878 1.691605 -1.801567 9.297779 0.000000 0.000000 0.000000 4.883159 0.045160 -1.164669 -4.068538 1.876553 -1.712993 -4.882519 7.781196 5.058338 6.249443 -2.908213 -12.100945 0.000000 0.000000 0.000000 -19.534059 -8.234158 1.632153 -52.019347 -9.515957 -1.995252 -9.098837 -20.181538 2.245187 0.000000 0.000000 0.000000 18.961202 0.852487 -0.405130 62.536799 3.999441 -4.109071 10.956714 28.671686 3.869770 0.000000 0.000000 0.000000 
-0.001255 0.949754 0.002235 -0.623010 -9.883916 2.164609 2.710443 0.096125 1.194450 -0.848144 0.231111 -4.566786 -3.990995 -4.002161 10.260918 0.000000 0.000000 0.000000 0.284950 0.148394 -1.706605 -1.323128 0.129739 0.261427 1.723002 -1.676565 9.148640 0.000000 0.000000 0.000000 4.771504 0.094719 -1.753189 -3.920969 1.849650 -0.808695 -5.253254 8.033186 4.395641 6.332073 -2.989506 -11.685155 0.000000 0.000000 0.000000 -19.485061 -8.173559 1.483557 -52.412525 -10.209276 -1.620205 -8.562579 -18.990065 2.006237 0.000000 0.000000 0.000000 18.709516 0.721537 -0.405960 62.899373 4.002440 -4.040605 10.417483 28.186368 3.672500 0.000000 0.000000 0.000000 
-0.001707 0.949955 0.002833 -0.553238 -9.814545 1.912447 2.367243 0.103004 1.242259 -0.322134 0.168829 -4.125828 -3.972953 -4.014993 10.135816 0.000000 0.000000 0.000000 0.122890 0.130712 -1.465846 -1.117119 0.118322 0.394605 1.696443 -1.710633 9.130535 0.000000 0.000000 0.000000 4.815773 0.100046 -1.767654 -4.011459 1.902276 -0.633387 -5.300345 8.160392 4.476467 6.378592 -3.020877 -11.608491 0.000000 0.000000 0.000000 -19.584707 -8.312104 1.505234 -52.085521 -10.197947 -1.612850 -9.023715 -18.497616 2.022711 0.000000 0.000000 0.000000 18.803181 0.480744 -0.495819 62.817914 3.847049 -4.133020 9.981246 27.762773 3.518175 0.000000 0.000000 0.000000 
-0.002068 0.950333 0.003419 -0.572909 -9.586064 1.813576 2.399875 0.119096 1.456134 -0.272164 0.170075 -4.290326 -4.121942 -4.189128 10.286235 0.000000 0.000000 0.000000 0.047683 0.105218 -1.167396 -0.881452 0.086216 0.174546 1.654529 -1.855716 9.301031 0.000000 0.000000 0.000000 4.715285 0.104129 -1.812631 -3.909082 1.849818 -0.713874 -5.153391 8.103364 4.652077 6.196479 -2.950908 -11.299298 0.000000 0.000000 0.000000 -19.820584 -8.167460 1.408835 -52.249487 -10.219906 -1.617227 -8.716162 -18.295185 1.952615 0.000000 0.000000 0.000000 18.484743 0.745047 -0.327720 62.931200 3.639790 -4.257501 9.543558 26.956325 3.299577 0.000000 0.000000 0.000000 
-0.002255 0.950669 0.003859 -0.565987 -9.391411 1.751225 2.375632 0.119805 1.472406 -0.196797 0.159924 -4.197307 -4.226995 -4.321312 10.358495 0.000000 0.000000 0.000000 0.019592 0.091478 -1.008622 -0.802045 0.075659 0.098310 1.602779 -1.996591 9.417915 0.000000 0.000000 0.000000 4.772991 0.101886 -1.776721 -3.963437 1.881191 -0.608894 -5.082183 7.940646 4.773476 6.397421 -3.031584 -11.681160 0.000000 0.000000 0.000000 -19.876352 -7.617888 1.133498 -52.484532 -9.879406 -1.792367 -9.065191 -18.456127 2.027786 0.000000 0.000000 0.000000 18.545290 0.512695 -0.471705 62.870821 3.391843 -4.400445 9.377478 26.780482 3.235417 0.000000 0.000000 0.000000 
-0.002357 0.950837 0.004198 -0.624876 -9.273813 1.850885 2.462927 0.098447 1.226518 -0.214831 0.151887 -3.927113 -4.262960 -4.384269 10.325130 0.000000 0.000000 0.000000 -0.032419 0.092832 -1.003650 -0.572016 0.049405 -0.028931 1.587452 -2.073971 9.538718 0.000000 0.000000 0.000000 4.729534 0.108061 -1.869230 -3.987411 1.889009 -0.680563 -4.752440 7.930381 4.942291 6.160424 -2.838696 -11.918400 0.000000 0.000000 0.000000 -19.907088 -7.463442 1.061331 -52.640639 -9.490618 -1.983241 -9.185946 -18.694860 2.075684 0.000000 0.000000 0.000000 18.285990 0.388407 -0.530834 62.856998 3.285624 -4.461316 9.520288 26.130496 3.174465 0.000000 0.000000 0.000000 
-0.002445 0.950823 0.004517 -0.637856 -9.370766 1.880225 2.500497 0.087219 1.079056 -0.268373 0.147444 -3.656241 -4.192934 -4.307927 10.239067 0.000000 0.000000 0.000000 -0.022164 0.087961 -0.956817 -0.577812 0.044354 -0.146419 1.640147 -1.989516 9.555181 0.000000 0.000000 0.000000 4.766412 0.110442 -1.892808 -4.076936 1.927296 -0.770415 -4.547623 7.895326 5.148267 6.115028 -2.801541 -12.061578 0.000000 0.000000 0.000000 -19.866838 -7.128295 0.933821 -52.931825 -9.322932 -2.102430 -9.351454 -18.671717 2.106288 0.000000 0.000000 0.000000 18.403384 0.440940 -0.538252 62.441837 3.198203 -4.510708 9.839521 25.976114 3.214402 0.000000 0.000000 0.000000 
-0.002567 0.950888 0.004874 -0.691079 -9.643989 1.891548 2.486960 0.083968 1.015851 -0.180711 0.131392 -3.437368 -4.034414 -4.095193 10.154404 0.000000 0.000000 0.000000 -0.097374 0.089796 -0.949450 -0.379018 0.025844 -0.174864 1.782926 -1.758072 9.597902 0.000000 0.000000 0.000000 4.811051 0.109044 -1.865108 -4.165283 1.958655 -0.981215 -4.281893 8.104257 5.394059 6.022950 -2.685813 -12.432640 0.000000 0.000000 0.000000 -19.765712 -6.943638 0.855550 -53.209261 -9.181940 -2.205508 -9.408925 -18.603700 2.110132 0.000000 0.000000 0.000000 18.429091 0.415050 -0.550316 62.160625 3.235918 -4.501430 10.318064 25.422454 3.237261 0.000000 0.000000 0.000000 
-0.002699 0.950670 0.005345 -0.735825 -9.890445 1.909823 2.587422 0.086567 1.035189 -0.306931 0.141465 -3.370189 -3.901175 -3.931032 10.045812 0.000000 0.000000 0.000000 -0.016928 0.089916 -0.984746 -0.469975 0.035933 -0.119427 1.870337 -1.564465 9.505008 0.000000 0.000000 0.000000 4.891476 0.111067 -1.873833 -4.204828 1.977141 -0.979945 -4.246360 8.127215 5.404903 6.101015 -2.749775 -12.422236 0.000000 0.000000 0.000000 -19.760764 -6.905570 0.868615 -53.094968 -9.086787 -2.250390 -9.401461 -18.514599 2.102388 0.000000 0.000000 0.000000 18.361617 0.523102 -0.516732 62.218618 3.169620 -4.540503 10.786245 25.170314 3.291459 0.000000 0.000000 0.000000 
-0.002829 0.950534 0.005869 -0.732366 -10.065851 1.931206 2.610714 0.094459 1.125682 -0.379278 0.151766 -3.464474 -3.820520 -3.818559 10.021378 0.000000 0.000000 0.000000 0.093903 0.081527 -0.941165 -0.699413 0.051141 -0.207986 1.934342 -1.428293 9.446985 0.000000 0.000000 0.000000 4.908175 0.113608 -1.897532 -4.254237 1.998975 -1.006315 -4.082813 8.187905 5.411354 6.097437 -2.703564 -12.733649 0.000000 0.000000 0.000000 -19.713782 -6.763685 0.814330 -53.164953 -9.027223 -2.283725 -9.289142 -18.225312 2.053231 0.000000 0.000000 0.000000 18.148487 0.418485 -0.580394 62.296949 3.081491 -4.584311 11.206834 25.040523 3.357024 0.000000 0.000000 0.000000 
-0.002869 0.950611 0.006296 -0.754773 -10.186865 1.986925 2.679114 0.093539 1.110708 -0.481525 0.161830 -3.459628 -3.771994 -3.737360 10.043263 0.000000 0.000000 0.000000 0.205968 0.090598 -1.082586 -0.878948 0.074914 -0.030270 1.971693 -1.354702 9.419326 0.000000 0.000000 0.000000 4.852308 0.105541 -1.820670 -4.180438 1.959725 -1.078454 -4.012914 8.213801 5.190228 6.033468 -2.663364 -12.719610 0.000000 0.000000 0.000000 -19.938905 -6.577017 0.699139 -52.731993 -9.063405 -2.221982 -9.304164 -17.988850 2.027629 0.000000 0.000000 0.000000 18.152533 0.420848 -0.596571 62.181530 2.670691 -4.771403 11.608830 25.081158 3.441708 0.000000 0.000000 0.000000 
-0.002866 0.950690 0.006488 -0.778352 -10.206561 1.927397 2.687588 0.090981 1.070665 -0.458681 0.152329 -3.237452 -3.746708 -3.716663 9.984980 0.000000 0.000000 0.000000 0.278303 0.094326 -1.147508 -0.968393 0.095729 0.229108 1.962938 -1.353743 9.380690 0.000000 0.000000 0.000000 4.789188 0.088848 -1.630980 -4.109404 1.927108 -1.060082 -3.899676 8.176911 5.098430 5.970307 -2.590842 -12.942430 0.000000 0.000000 0.000000 -20.049809 -6.547202 0.686822 -52.634896 -9.025001 -2.225444 -9.188139 -17.841773 1.993986 0.000000 0.000000 0.000000 18.162359 0.345664 -0.656557 62.147922 2.453350 -4.871981 11.721697 25.319364 3.498477 0.000000 0.000000 0.000000 
-0.002906 0.950803 0.006464 -0.757222 -10.163100 1.872047 2.630962 0.102638 1.219151 -0.385667 0.150756 -3.414148 -3.788185 -3.753060 10.066527 0.000000 0.000000 0.000000 0.322095 0.084626 -1.061047 -1.075873 0.102953 0.181278 1.951183 -1.388520 9.410164 0.000000 0.000000 0.000000 4.685103 0.082373 -1.559769 -4.066812 1.907778 -1.046381 -3.846772 8.206877 5.091988 5.866041 -2.523098 -12.910616 0.000000 0.000000 0.000000 -20.091574 -6.644366 0.722525 -52.635372 -9.261276 -2.117428 -8.749706 -17.688594 1.908910 0.000000 0.000000 0.000000 18.240735 0.501534 -0.564883 62.062962 2.381487 -4.906970 11.720541 25.496859 3.528474 0.000000 0.000000 0.000000 
-0.003096 0.951008 0.006308 -0.765547 -10.112667 1.828943 2.654625 0.106269 1.267622 -0.376719 0.150793 -3.442079 -3.829891 -3.790095 10.142279 0.000000 0.000000 0.000000 0.506487 0.075765 -1.035228 -1.355072 0.129879 0.215751 1.932486 -1.443517 9.450061 0.000000 0.000000 0.000000 4.445681 0.066629 -1.391412 -3.930548 1.847496 -0.959573 -3.842503 8.366788 4.949840 6.046112 -2.640688 -12.778543 0.000000 0.000000 0.000000 -19.930645 -6.718164 0.712377 -52.604278 -9.510392 -1.982972 -8.649872 -17.607225 1.877664 0.000000 0.000000 0.000000 18.332051 0.575365 -0.484748 61.930240 2.396556 -4.876645 11.464822 25.624365 3.501680 0.000000 0.000000 0.000000 
-0.003337 0.951181 0.006128 -0.784223 -10.163681 1.743323 2.663622 0.118564 1.414460 -0.332291 0.149484 -3.533010 -3.824554 -3.758729 10.211393 0.000000 0.000000 0.000000 0.590244 0.070203 -1.007135 -1.444840 0.143275 0.313028 1.960086 -1.408080 9.474541 0.000000 0.000000 0.000000 4.263723 0.045181 -1.132481 -3.833574 1.798823 -1.018968 -3.786324 8.593698 5.000454 6.197663 -2.687250 -13.000074 0.000000 0.000000 0.000000 -19.738489 -6.841473 0.741821 -52.759254 -9.667767 -1.916440 -8.698957 -17.635773 1.882134 0.000000 0.000000 0.000000 18.527418 0.615765 -0.420962 61.810468 2.634893 -4.757642 11.178997 25.742299 3.472005 0.000000 0.000000 0.000000 
-0.003518 0.951296 0.006024 -0.815511 -10.341373 1.592552 2.715290 0.137220 1.626909 -0.367467 0.154154 -3.567724 -3.758321 -3.650533 10.238367 0.000000 0.000000 0.000000 0.784177 0.043814 -0.809844 -1.738694 0.164617 0.224806 2.052069 -1.264322 9.505185 0.000000 0.000000 0.000000 4.111809 0.029703 -0.922524 -3.716899 1.753985 -0.796782 -3.787942 8.833319 4.916562 6.390068 -2.821925 -12.845571 0.000000 0.000000 0.000000 -19.706714 -6.986460 0.773281 -52.656812 -9.635870 -1.910247 -8.782717 -17.844497 1.911799 0.000000 0.000000 0.000000 18.794208 0.827382 -0.276334 61.740681 2.833242 -4.654575 10.620706 26.160514 3.423045 0.000000 0.000000 0.000000 
